<svg width="25" height="25" viewBox="0 0 25 25" fill="none" xmlns="http://www.w3.org/2000/svg">
<path fill-rule="evenodd" clip-rule="evenodd" d="M0 12.5C0 5.59644 5.59644 0 12.5 0C19.4036 0 25 5.59644 25 12.5C25 19.4036 19.4036 25 12.5 25C5.59644 25 0 19.4036 0 12.5ZM13.8889 6.94444C13.8889 6.17738 13.2671 5.55556 12.5 5.55556C11.7329 5.55556 11.1111 6.17738 11.1111 6.94444V12.5C11.1111 12.8684 11.2574 13.2216 11.5179 13.4821L14.2957 16.2599C14.8381 16.8023 15.7175 16.8023 16.2599 16.2599C16.8023 15.7175 16.8023 14.8381 16.2599 14.2957L13.8889 11.9247V6.94444Z" fill="#740E11"/>
</svg>
