<svg width="25" height="25" viewBox="0 0 25 25" fill="none" xmlns="http://www.w3.org/2000/svg">
<path fill-rule="evenodd" clip-rule="evenodd" d="M0 11.2488C0 5.03626 5.59644 0 12.5 0C19.4036 0 25 5.03626 25 11.2488C25 15.0314 22.4864 18.2378 19.5902 20.4966L14.8105 24.2244C13.4845 25.2585 11.5155 25.2585 10.1896 24.2244L5.4098 20.4966C2.51357 18.2378 0 15.0314 0 11.2488ZM12.5 13.7485C14.0341 13.7485 15.2778 12.6294 15.2778 11.2488C15.2778 9.86824 14.0341 8.74907 12.5 8.74907C10.9659 8.74907 9.72222 9.86824 9.72222 11.2488C9.72222 12.6294 10.9659 13.7485 12.5 13.7485Z" fill="#740E11"/>
</svg>
