<svg width="25" height="25" viewBox="0 0 25 25" fill="none" xmlns="http://www.w3.org/2000/svg">
<path d="M12.5059 0C15.8444 0.00127969 18.9829 1.30238 21.3428 3.66406C23.7028 6.02597 25.0013 9.16605 25 12.5049C24.9971 19.3947 19.3896 25 12.5 25H12.4951C10.2522 24.9991 8.05195 24.3962 6.13281 23.2578L5.67676 22.9873L0.945314 24.2285L2.20801 19.6172L1.91113 19.1445C0.659846 17.1551 -0.000968462 14.8552 1.06531e-06 12.4941C0.00288254 5.60484 5.61091 0 12.5059 0ZM7.17578 5.55078C6.92535 5.55078 6.51821 5.64469 6.17383 6.02051C5.82941 6.39656 4.85851 7.30566 4.8584 9.1543C4.8584 11.0023 6.20354 12.7879 6.39258 13.04C6.58046 13.2909 9.04281 17.0858 12.8125 18.7129C13.7087 19.0998 14.4084 19.3308 14.9541 19.5039C15.8542 19.7899 16.6739 19.7491 17.3213 19.6523C18.0433 19.5445 19.5451 18.7436 19.8584 17.8662C20.1712 16.9888 20.171 16.2367 20.0772 16.0801C19.9832 15.9235 19.7321 15.8297 19.3564 15.6416C18.9799 15.4532 17.1335 14.5444 16.7891 14.4189C16.4448 14.2937 16.1938 14.2315 15.9434 14.6074C15.6929 14.9834 14.9733 15.8292 14.7539 16.0801C14.5347 16.3307 14.3151 16.3619 13.9395 16.1738C13.5633 15.9858 12.3529 15.589 10.918 14.3096C9.80115 13.3138 9.04659 12.0845 8.82715 11.708C8.60797 11.332 8.80409 11.1287 8.99219 10.9414C9.16121 10.7731 9.36783 10.5025 9.55567 10.2832C9.74354 10.0639 9.80638 9.90677 9.93164 9.65625C10.0568 9.40552 9.99432 9.18604 9.90039 8.99805C9.80645 8.81001 9.05436 6.96114 8.74121 6.20898C8.43616 5.47652 8.12616 5.57602 7.89551 5.56445C7.67668 5.55348 7.42609 5.55078 7.17578 5.55078Z" fill="#740E11"/>
</svg>
