<svg width="50" height="50" viewBox="0 0 50 50" fill="none" xmlns="http://www.w3.org/2000/svg">
<path d="M49.9965 25C49.9965 37.6261 40.6373 48.0644 28.4788 49.7583C27.342 49.9159 26.1789 49.9982 24.9982 49.9982C23.6354 49.9982 22.2972 49.8896 20.9939 49.6794C9.09123 47.7631 0 37.4422 0 25C0 11.1932 11.1932 0 25 0C38.8068 0 50 11.1932 50 25H49.9965Z" fill="#740E11"/>
<path d="M28.4788 20.0742V25.5202H35.2158L34.149 32.8562H28.4788V49.7582C27.3419 49.9159 26.1788 49.9982 24.9982 49.9982C23.6354 49.9982 22.2971 49.8896 20.9939 49.6794V32.8562H14.7806V25.5202H20.9939V18.8568C20.9939 14.7228 24.3448 11.3701 28.4805 11.3701V11.3736C28.4928 11.3736 28.5033 11.3701 28.5156 11.3701H35.2175V17.7147H30.8383C29.5368 17.7147 28.4805 18.771 28.4805 20.0725L28.4788 20.0742Z" fill="white"/>
</svg>
