<svg width="50" height="50" viewBox="0 0 50 50" fill="none" xmlns="http://www.w3.org/2000/svg">
<path d="M25.0569 0H24.9431C11.1674 0 0 11.1674 0 24.943V25.0569C0 38.8326 11.1674 50 24.9431 50H25.0569C38.8326 50 50 38.8326 50 25.0569V24.943C50 11.1674 38.8326 0 25.0569 0Z" fill="#740E11"/>
<path d="M32.7365 10.1724H17.2651C12.9909 10.1724 9.51367 13.6496 9.51367 17.9238V32.0779C9.51367 36.3522 12.9909 39.8294 17.2651 39.8294H32.7365C37.0108 39.8294 40.488 36.3522 40.488 32.0779V17.9238C40.488 13.6496 37.0108 10.1724 32.7365 10.1724ZM12.2481 17.9238C12.2481 15.1578 14.4991 12.9068 17.2651 12.9068H32.7365C35.5025 12.9068 37.7535 15.1578 37.7535 17.9238V32.0779C37.7535 34.8439 35.5025 37.0949 32.7365 37.0949H17.2651C14.4991 37.0949 12.2481 34.8439 12.2481 32.0779V17.9238Z" fill="white"/>
<path d="M25.001 32.2094C28.9757 32.2094 32.2111 28.9757 32.2111 24.9992C32.2111 21.0228 28.9774 17.7891 25.001 17.7891C21.0245 17.7891 17.7908 21.0228 17.7908 24.9992C17.7908 28.9757 21.0245 32.2094 25.001 32.2094ZM25.001 20.5253C27.4692 20.5253 29.4767 22.5328 29.4767 25.001C29.4767 27.4692 27.4692 29.4767 25.001 29.4767C22.5327 29.4767 20.5252 27.4692 20.5252 25.001C20.5252 22.5328 22.5327 20.5253 25.001 20.5253Z" fill="white"/>
<path d="M32.8785 18.9537C33.9488 18.9537 34.8212 18.0831 34.8212 17.0111C34.8212 15.939 33.9505 15.0684 32.8785 15.0684C31.8064 15.0684 30.9358 15.939 30.9358 17.0111C30.9358 18.0831 31.8064 18.9537 32.8785 18.9537Z" fill="white"/>
</svg>
